<?xml version="1.0" encoding="UTF-8"?>
<svg width="522px" height="196px" viewBox="0 0 522 196" version="1.1" xmlns="http://www.w3.org/2000/svg" xmlns:xlink="http://www.w3.org/1999/xlink">
    <!-- Generator: Sketch 55 (78076) - https://sketchapp.com -->
    <title>lobash</title>
    <desc>Created with Sketch.</desc>
    <g id="lobash" stroke="none" stroke-width="1" fill="none" fill-rule="evenodd">
        <rect fill="#FFFFFF" x="0" y="0" width="522" height="196"></rect>
        <g id="编组" transform="translate(125.000000, 64.000000)" fill-rule="nonzero">
            <path d="M0,0 L19.8771144,0 L19.8771144,39.8180505 C19.8771144,42.9275727 20.3748532,44.9978288 21.3703459,46.0288809 C22.3658385,47.059933 24.332315,47.5754513 27.2698343,47.5754513 L28.2979609,47.5754513 L28.2979609,67.0180505 L23.0104526,67.0180505 C15.7645717,67.0180505 10.1180916,64.8986975 6.07084282,60.6599278 C2.02359404,56.4211581 0,50.5377031 0,43.0093863 L0,0 Z M54.7864189,17.0368231 C61.7059088,17.0368231 67.6379768,19.5325864 72.5828009,24.5241877 C77.527625,29.5157891 80,35.4974381 80,42.4693141 C80,49.5393855 77.4949864,55.5619486 72.4848841,60.5371841 C67.4747818,65.5124196 61.4284786,68 54.3457932,68 C47.2631079,68 41.2086451,65.5042368 36.1822232,60.5126354 C31.1558013,55.521034 28.6426281,49.5066537 28.6426281,42.4693141 C28.6426281,35.3010472 31.1558013,29.2703012 36.1822232,24.3768953 C41.2086451,19.4834894 47.4099816,17.0368231 54.7864189,17.0368231 Z M54.2968348,35.1537906 C52.3384887,35.1537906 50.6739194,35.8656969 49.303077,37.2895307 C47.9322347,38.7133645 47.2468238,40.4563074 47.2468238,42.5184116 C47.2468238,44.5477839 47.9403944,46.2825439 49.3275562,47.7227437 C50.7147181,49.1629434 52.3711278,49.8830325 54.2968348,49.8830325 C56.255181,49.8830325 57.92791,49.1629434 59.3150718,47.7227437 C60.7022337,46.2825439 61.3958043,44.5477839 61.3958043,42.5184116 C61.3958043,40.4563074 60.7103934,38.7133645 59.3395511,37.2895307 C57.9687087,35.8656969 56.2878201,35.1537906 54.2968348,35.1537906 Z" id="Lo" fill="#16E926"></path>
            <path d="M85,0 L109.244693,0 C123.615612,0 130.800963,5.65032664 130.800963,16.9511494 C130.800963,22.55271 128.340673,27.2097516 123.420018,30.9224138 C130.556597,34.016299 134.124832,39.5363587 134.124832,47.4827586 C134.124832,53.5728274 132.022995,58.4252693 127.819257,62.0402299 C125.766268,63.7662922 123.566671,64.9712609 121.220399,65.6551724 C118.874126,66.3390839 115.713223,66.6810345 111.737595,66.6810345 L107.973802,66.6810345 L107.973802,49.5344828 L111.346552,49.5344828 C113.334366,49.5344828 114.735591,49.2820906 115.550269,48.7772989 C116.364947,48.2725071 116.77228,47.3850638 116.77228,46.1149425 C116.77228,43.9655065 115.110362,42.8908046 111.786476,42.8908046 L107.973802,42.8908046 L107.973802,25.1091954 C111.623559,25.1091954 113.44841,23.8553765 113.44841,21.3477011 C113.44841,19.0354291 111.802786,17.8793103 108.511487,17.8793103 L104.845455,17.8793103 L104.845455,66.6810345 L85,66.6810345 L85,0 Z M165.850187,48.4109195 L165.850187,67.316092 C164.351179,67.5766297 162.982541,67.7068966 161.744231,67.7068966 C154.412129,67.7068966 148.302137,65.296959 143.414069,60.4770115 C138.526002,55.657064 136.082005,49.6159367 136.082005,42.3534483 C136.082005,35.2863631 138.550442,29.2940859 143.48739,24.3764368 C148.424338,19.4587877 154.428424,17 161.499828,17 C169.385911,17 175.60181,19.3040957 180.147712,23.9123563 C184.693615,28.5206169 186.966533,34.8141364 186.966533,42.7931034 L186.966533,66.6810345 L168.685252,66.6810345 L168.685252,44.112069 C168.685252,41.5392592 168.057959,39.4875555 166.803355,37.9568966 C165.548751,36.4262376 163.862393,35.6609195 161.744231,35.6609195 C159.821591,35.6609195 158.159673,36.3611041 156.758427,37.7614943 C155.357181,39.1618844 154.656568,40.8227873 154.656568,42.7442529 C154.656568,44.7634201 155.292007,46.424323 156.562905,47.7270115 C157.833802,49.0297 159.446841,49.6810345 161.402068,49.6810345 C162.998836,49.6810345 164.481528,49.2576671 165.850187,48.4109195 Z M226.170593,18.6609195 L226.170593,37.908046 C223.596211,37.908046 221.828386,38.3884052 220.867066,39.3491379 C219.905746,40.3098707 219.294747,42.2068824 219.03405,45.0402299 C218.186785,54.4521543 214.537083,61.0957661 208.084834,64.9712644 C204.663186,66.9904316 199.807779,68 193.518465,68 L190.976683,68 L190.976683,48.6551724 L191.80765,48.6551724 C194.740491,48.6551724 196.834182,48.0445463 198.088786,46.8232759 C199.34339,45.6020054 200.068442,43.4607433 200.263965,40.3994253 C200.524662,35.4166418 200.989021,31.9157189 201.657057,29.8965517 C202.325093,27.8773845 203.685585,25.874531 205.738573,23.887931 C209.323156,20.4032393 214.292616,18.6609195 220.647104,18.6609195 L226.170593,18.6609195 Z M248.413144,0 L248.413144,20.3706897 C251.50892,18.123552 254.604649,17 257.700425,17 C262.39297,17 266.115992,18.6934697 268.869604,22.0804598 C271.623215,25.4674499 273,30.0430746 273,35.8074713 L273,66.6810345 L254.718719,66.6810345 L254.718719,40.9367816 C254.718719,38.85248 254.498759,37.4521109 254.058833,36.7356322 C253.618907,36.0191535 252.763508,35.6609195 251.492611,35.6609195 C249.439622,35.6609195 248.413144,37.1752722 248.413144,40.204023 L248.413144,66.6810345 L230.131863,66.6810345 L230.131863,0 L248.413144,0 Z" id="Bash" fill="#0B0B0C"></path>
        </g>
    </g>
</svg>